<svg xmlns="http://www.w3.org/2000/svg" xmlns:xlink="http://www.w3.org/1999/xlink" width="560" height="1477.959" viewBox="0 0 560 1477.959">
  <defs>
    <linearGradient id="linear-gradient" x1="0.5" y1="0.508" x2="0.5" y2="1" gradientUnits="objectBoundingBox">
      <stop offset="0" stop-color="#2a2929"/>
      <stop offset="1" stop-color="#010000"/>
    </linearGradient>
    <linearGradient id="linear-gradient-2" x1="0.5" y1="1" x2="1.137" y2="-1.111" gradientUnits="objectBoundingBox">
      <stop offset="0" stop-color="#faf8f9"/>
      <stop offset="1" stop-color="#e3e3e3"/>
    </linearGradient>
    <filter id="Mic" x="241" y="48.98" width="78" height="13" filterUnits="userSpaceOnUse">
      <feOffset dy="3" input="SourceAlpha"/>
      <feGaussianBlur result="blur"/>
      <feFlood flood-color="#2e2e2e"/>
      <feComposite operator="in" in2="blur"/>
      <feComposite in="SourceGraphic"/>
    </filter>
    <linearGradient id="linear-gradient-3" x1="0.5" x2="0.5" y2="1" gradientUnits="objectBoundingBox">
      <stop offset="0" stop-color="#f9f9f9"/>
      <stop offset="1" stop-color="#ececec"/>
    </linearGradient>
    <filter id="Rectangle_7" x="186" y="837.98" width="188" height="188" filterUnits="userSpaceOnUse">
      <feOffset dy="3" input="SourceAlpha"/>
      <feGaussianBlur stdDeviation="1" result="blur-2"/>
      <feFlood flood-color="#3a3a3a" flood-opacity="0.302"/>
      <feComposite operator="in" in2="blur-2"/>
      <feComposite in="SourceGraphic"/>
    </filter>
    <linearGradient id="linear-gradient-4" x1="0.5" x2="0.5" y2="1" gradientUnits="objectBoundingBox">
      <stop offset="0" stop-color="#ededed"/>
      <stop offset="0.76" stop-color="#fbfbfb"/>
    </linearGradient>
    <clipPath id="clip-path">
      <rect id="Rectangle_13" data-name="Rectangle 13" width="480" height="640" fill="#873cff"/>
    </clipPath>
  </defs>
  <g id="Kai_Device" data-name="Kai Device" transform="translate(0 -0.02)">
    <g id="Device">
      <g id="Dark">
        <path id="Rectangle" d="M0,40.893A32,32,0,0,1,30.874,8.913L282.858.04Q284,0,285.142.041L529.159,8.883A32,32,0,0,1,560,40.862V788H0Z" transform="translate(0)" fill="url(#linear-gradient)"/>
      </g>
      <g id="White" transform="translate(0 788)">
        <path id="Rectangle-2" data-name="Rectangle" d="M0-40.893A32,32,0,0,0,30.874-8.913L282.858-.04q1.142.04,2.285,0L529.159-8.883A32,32,0,0,0,560-40.862V-690H0Z" transform="translate(0 690)" fill="url(#linear-gradient-2)"/>
        <rect id="Rectangle_4" data-name="Rectangle 4" width="560" height="2" fill="rgba(255,255,255,0.4)"/>
      </g>
      <g id="Mic-2" data-name="Mic" transform="translate(241 49)">
        <g transform="matrix(1, 0, 0, 1, -241, -48.98)" filter="url(#Mic)">
          <rect id="Mic-3" data-name="Mic" width="78" height="10" rx="4" transform="translate(241 48.98)" fill="#080808"/>
        </g>
      </g>
    </g>
    <g id="Keys" transform="translate(58 1053)">
      <text id="_1" data-name="1" transform="translate(20.5 49)" fill="#525252" font-size="64" font-family="OpenSans, Open Sans"><tspan x="-18.297" y="0">1</tspan></text>
      <text id="ABC" transform="translate(257 45)" fill="#a1a1a1" font-size="24" font-family="OpenSans, Open Sans" letter-spacing="0.185em"><tspan x="-27.37" y="0">ABC</tspan></text>
      <text id="JKL" transform="translate(250.5 146)" fill="#a1a1a1" font-size="24" font-family="OpenSans, Open Sans" letter-spacing="0.185em"><tspan x="-21.23" y="0">JKL</tspan></text>
      <text id="TUV" transform="translate(256.5 239)" fill="#a1a1a1" font-size="24" font-family="OpenSans, Open Sans" letter-spacing="0.185em"><tspan x="-26.948" y="0">TUV</tspan></text>
      <text id="GHI" transform="translate(79 146)" fill="#a1a1a1" font-size="24" font-family="OpenSans, Open Sans" letter-spacing="0.185em"><tspan x="-25.366" y="0">GHI</tspan></text>
      <text id="PQRS" transform="translate(90.5 239)" fill="#a1a1a1" font-size="24" font-family="OpenSans, Open Sans" letter-spacing="0.185em"><tspan x="-37.22" y="0">PQRS</tspan></text>
      <text id="DEF" transform="translate(420 45)" fill="#a1a1a1" font-size="24" font-family="OpenSans, Open Sans" letter-spacing="0.185em"><tspan x="-26.046" y="0">DEF</tspan></text>
      <text id="MNO" transform="translate(425 146)" fill="#a1a1a1" font-size="24" font-family="OpenSans, Open Sans" letter-spacing="0.185em"><tspan x="-33.657" y="0">MNO</tspan></text>
      <text id="WXYZ" transform="translate(430 235)" fill="#a1a1a1" font-size="24" font-family="OpenSans, Open Sans" letter-spacing="0.185em"><tspan x="-38.252" y="0">WXYZ</tspan></text>
      <text id="_4" data-name="4" transform="translate(20.5 147)" fill="#525252" font-size="64" font-family="OpenSans, Open Sans"><tspan x="-18.297" y="0">4</tspan></text>
      <text id="_7" data-name="7" transform="translate(20.5 242)" fill="#525252" font-size="64" font-family="OpenSans, Open Sans"><tspan x="-18.297" y="0">7</tspan></text>
      <text id="_2" data-name="2" transform="translate(188.5 49)" fill="#525252" font-size="64" font-family="OpenSans, Open Sans"><tspan x="-18.297" y="0">2</tspan></text>
      <text id="_5" data-name="5" transform="translate(188.5 147)" fill="#525252" font-size="64" font-family="OpenSans, Open Sans"><tspan x="-18.297" y="0">5</tspan></text>
      <text id="_8" data-name="8" transform="translate(188.5 242)" fill="#525252" font-size="64" font-family="OpenSans, Open Sans"><tspan x="-18.297" y="0">8</tspan></text>
      <text id="_0" data-name="0" transform="translate(188.5 345)" fill="#525252" font-size="64" font-family="OpenSans, Open Sans"><tspan x="-18.297" y="0">0</tspan></text>
      <g id="Combined_Shape" data-name="Combined Shape" transform="translate(227 336)" fill="#d8d8d8" stroke-miterlimit="10">
        <path d="M 23.50030136108398 8.5 L 23.00040054321289 8.5 L 0.5000006556510925 8.5 L 0.5000006556510925 0.5 L 1.499800682067871 0.5 L 1.499800682067871 7.000199794769287 L 1.499800682067871 7.500199794769287 L 1.999800682067871 7.500199794769287 L 21.99960136413574 7.500199794769287 L 22.49960136413574 7.500199794769287 L 22.49960136413574 7.000199794769287 L 22.49960136413574 0.5 L 23.50030136108398 0.5 L 23.50030136108398 8.5 Z" stroke="none"/>
        <path d="M 23.00040054321289 8 L 23.00030136108398 8 L 23.00030136108398 1 L 22.99960136413574 1 L 22.99960136413574 7.000199794769287 L 22.99960136413574 8 L 23.00040054321289 8 M 24.00030136108398 9 L 23.00040054321289 9 L 6.805419729971618e-07 9 L 6.805419729971618e-07 0 L 1.999800682067871 0 L 1.999800682067871 7.000199794769287 L 21.99960136413574 7.000199794769287 L 21.99960136413574 0 L 24.00030136108398 0 L 24.00030136108398 9 Z" stroke="none" fill="#979797"/>
      </g>
      <text id="_3" data-name="3" transform="translate(352.5 49)" fill="#525252" font-size="64" font-family="OpenSans, Open Sans"><tspan x="-18.297" y="0">3</tspan></text>
      <text id="_6" data-name="6" transform="translate(352.5 147)" fill="#525252" font-size="64" font-family="OpenSans, Open Sans"><tspan x="-18.297" y="0">6</tspan></text>
      <text id="_9" data-name="9" transform="translate(352.5 242)" fill="#525252" font-size="64" font-family="OpenSans, Open Sans"><tspan x="-18.297" y="0">9</tspan></text>
      <text id="_" data-name="#" transform="translate(352.5 345)" fill="#525252" font-size="64" font-family="OpenSans, Open Sans"><tspan x="-20.672" y="0">#</tspan></text>
      <g id="Group_7" data-name="Group 7" transform="translate(389 328)">
        <g id="Rectangle_16" data-name="Rectangle 16" transform="translate(10 2)" fill="#d8d8d8" stroke="#979797" stroke-miterlimit="10" stroke-width="1">
          <rect width="2" height="17" stroke="none"/>
          <rect x="0.5" y="0.5" width="1" height="16" fill="none"/>
        </g>
        <g id="Combined_Shape-2" data-name="Combined Shape" transform="translate(10.96 0) rotate(45)" fill="#d8d8d8" stroke-miterlimit="10">
          <path d="M 1.499800205230713 14.99980068206787 L 0.5000001788139343 14.99980068206787 L 0.5000001788139343 0.5004003643989563 L 0.5000001788139343 0.5000003576278687 L 14.50030040740967 0.5000003576278687 L 14.50030040740967 1.499800324440002 L 1.999800205230713 1.499800324440002 L 1.499800205230713 1.499800324440002 L 1.499800205230713 1.999800324440002 L 1.499800205230713 14.99980068206787 Z" stroke="none"/>
          <path d="M 1.999800205230713 15.49980068206787 L 2.037048290048915e-07 15.49980068206787 L 2.037048290048915e-07 0.5004003643989563 L 2.037048290048915e-07 3.410339388665307e-07 L 15.00030040740967 3.410339388665307e-07 L 15.00030040740967 1.999800324440002 L 1.999800205230713 1.999800324440002 L 1.999800205230713 15.49980068206787 Z" stroke="none" fill="#979797"/>
        </g>
      </g>
      <g id="Group_8" data-name="Group 8" transform="translate(423 326)">
        <g id="Combined_Shape-3" data-name="Combined Shape" transform="matrix(-0.695, 0.719, -0.719, -0.695, 12.746, 6.362)" fill="#d8d8d8" stroke-miterlimit="10">
          <path d="M 0.6817001104354858 8.659299850463867 L 0.5000001192092896 8.659299850463867 L 0.5000001192092896 0.4999999105930328 L 8.363200187683105 0.4999999105930328 L 8.363200187683105 0.6816999316215515 L 1.181700110435486 0.6816999316215515 L 0.6817001104354858 0.6816999316215515 L 0.6817001104354858 1.181699872016907 L 0.6817001104354858 8.659299850463867 Z" stroke="none"/>
          <path d="M 1.181700110435486 9.159299850463867 L 9.384154964209301e-08 9.159299850463867 L 9.384154964209301e-08 0.2951999306678772 L 9.384154964209301e-08 -7.476806729300733e-08 L 8.863200187683105 -7.476806729300733e-08 L 8.863200187683105 1.181699872016907 L 1.181700110435486 1.181699872016907 L 1.181700110435486 9.159299850463867 Z" stroke="none" fill="#979797"/>
        </g>
        <g id="Combined_Shape-4" data-name="Combined Shape" transform="matrix(-0.695, 0.719, -0.719, -0.695, 25.746, 6.362)" fill="#d8d8d8" stroke-miterlimit="10">
          <path d="M 0.6817001104354858 8.659299850463867 L 0.5000001192092896 8.659299850463867 L 0.5000001192092896 0.4999999105930328 L 8.363200187683105 0.4999999105930328 L 8.363200187683105 0.6816999316215515 L 1.181700110435486 0.6816999316215515 L 0.6817001104354858 0.6816999316215515 L 0.6817001104354858 1.181699872016907 L 0.6817001104354858 8.659299850463867 Z" stroke="none"/>
          <path d="M 1.181700110435486 9.159299850463867 L 9.384154964209301e-08 9.159299850463867 L 9.384154964209301e-08 0.2951999306678772 L 9.384154964209301e-08 -7.476806729300733e-08 L 8.863200187683105 -7.476806729300733e-08 L 8.863200187683105 1.181699872016907 L 1.181700110435486 1.181699872016907 L 1.181700110435486 9.159299850463867 Z" stroke="none" fill="#979797"/>
        </g>
        <g id="Combined_Shape-5" data-name="Combined Shape" transform="matrix(-0.695, 0.719, -0.719, -0.695, 12.746, 17.362)" fill="#d8d8d8" stroke-miterlimit="10">
          <path d="M 0.6817001104354858 8.659299850463867 L 0.5000001192092896 8.659299850463867 L 0.5000001192092896 0.4999999105930328 L 8.363200187683105 0.4999999105930328 L 8.363200187683105 0.6816999316215515 L 1.181700110435486 0.6816999316215515 L 0.6817001104354858 0.6816999316215515 L 0.6817001104354858 1.181699872016907 L 0.6817001104354858 8.659299850463867 Z" stroke="none"/>
          <path d="M 1.181700110435486 9.159299850463867 L 9.384154964209301e-08 9.159299850463867 L 9.384154964209301e-08 0.2951999306678772 L 9.384154964209301e-08 -7.476806729300733e-08 L 8.863200187683105 -7.476806729300733e-08 L 8.863200187683105 1.181699872016907 L 1.181700110435486 1.181699872016907 L 1.181700110435486 9.159299850463867 Z" stroke="none" fill="#979797"/>
        </g>
        <g id="Combined_Shape-6" data-name="Combined Shape" transform="matrix(-0.695, 0.719, -0.719, -0.695, 25.746, 17.362)" fill="#d8d8d8" stroke-miterlimit="10">
          <path d="M 0.6817001104354858 8.659299850463867 L 0.5000001192092896 8.659299850463867 L 0.5000001192092896 0.4999999105930328 L 8.363200187683105 0.4999999105930328 L 8.363200187683105 0.6816999316215515 L 1.181700110435486 0.6816999316215515 L 0.6817001104354858 0.6816999316215515 L 0.6817001104354858 1.181699872016907 L 0.6817001104354858 8.659299850463867 Z" stroke="none"/>
          <path d="M 1.181700110435486 9.159299850463867 L 9.384154964209301e-08 9.159299850463867 L 9.384154964209301e-08 0.2951999306678772 L 9.384154964209301e-08 -7.476806729300733e-08 L 8.863200187683105 -7.476806729300733e-08 L 8.863200187683105 1.181699872016907 L 1.181700110435486 1.181699872016907 L 1.181700110435486 9.159299850463867 Z" stroke="none" fill="#979797"/>
        </g>
      </g>
      <g id="Group_6" data-name="Group 6" transform="translate(51 36)">
        <circle id="Oval" cx="8" cy="8" r="8" fill="none" stroke="#979797" stroke-miterlimit="10" stroke-width="2"/>
        <circle id="Oval-2" data-name="Oval" cx="8" cy="8" r="8" transform="translate(24)" fill="none" stroke="#979797" stroke-miterlimit="10" stroke-width="2"/>
        <g id="Rectangle_6" data-name="Rectangle 6" transform="translate(7 15)" fill="#d8d8d8" stroke="#979797" stroke-miterlimit="10" stroke-width="2">
          <rect width="25" height="2" stroke="none"/>
          <rect x="1" y="1" width="23" fill="none"/>
        </g>
      </g>
      <path id="Combined_Shape-7" data-name="Combined Shape" d="M20,19.378l-9.75,15.6-1.7-1.06L18.2,18.491H0v-2H18.2L8.554,1.06,10.25,0,20,15.6,29.75,0l1.7,1.06L21.8,16.491H40v2H21.8l9.642,15.431-1.7,1.06Z" transform="translate(0 323)" fill="#525252" stroke="#525252" stroke-miterlimit="10" stroke-width="2"/>
      <g id="Combined_Shape-8" data-name="Combined Shape" transform="translate(51 328)" fill="#d8d8d8" stroke-miterlimit="10">
        <path d="M 12.49960041046143 23.50030136108398 L 11.49980068206787 23.50030136108398 L 11.49980068206787 12.99960041046143 L 11.49980068206787 12.49960041046143 L 10.99980068206787 12.49960041046143 L 0.5000006556510925 12.49960041046143 L 0.5000006556510925 11.49980068206787 L 10.99980068206787 11.49980068206787 L 11.49980068206787 11.49980068206787 L 11.49980068206787 10.99980068206787 L 11.49980068206787 0.5000006556510925 L 12.49960041046143 0.5000006556510925 L 12.49960041046143 10.99980068206787 L 12.49960041046143 11.49980068206787 L 12.99960041046143 11.49980068206787 L 23.50030136108398 11.49980068206787 L 23.50030136108398 12.49960041046143 L 12.99960041046143 12.49960041046143 L 12.49960041046143 12.49960041046143 L 12.49960041046143 12.99960041046143 L 12.49960041046143 23.50030136108398 Z" stroke="none"/>
        <path d="M 12.99960041046143 24.00030136108398 L 10.99980068206787 24.00030136108398 L 10.99980068206787 12.99960041046143 L 6.805419729971618e-07 12.99960041046143 L 6.805419729971618e-07 10.99980068206787 L 10.99980068206787 10.99980068206787 L 10.99980068206787 6.805419729971618e-07 L 12.99960041046143 6.805419729971618e-07 L 12.99960041046143 10.99980068206787 L 24.00030136108398 10.99980068206787 L 24.00030136108398 12.99960041046143 L 12.99960041046143 12.99960041046143 L 12.99960041046143 24.00030136108398 Z" stroke="none" fill="#979797"/>
      </g>
    </g>
    <g id="BUTTONS" transform="translate(56 838)">
      <g id="Group_3" data-name="Group 3" transform="translate(133)">
        <g transform="matrix(1, 0, 0, 1, -189, -837.98)" filter="url(#Rectangle_7)">
          <rect id="Rectangle_7-2" data-name="Rectangle 7" width="182" height="182" rx="56" transform="translate(189 837.98)" fill="url(#linear-gradient-3)"/>
        </g>
        <rect id="Rectangle_7-3" data-name="Rectangle 7" width="153" height="153" rx="56" transform="translate(15 15)" fill="url(#linear-gradient-4)"/>
      </g>
      <rect id="Rectangle_9" data-name="Rectangle 9" width="80" height="7" rx="3.5" transform="translate(0 27)" fill="#868686"/>
      <rect id="Rectangle_9-2" data-name="Rectangle 9" width="80" height="7" rx="3.5" transform="translate(370 27)" fill="#868686"/>
      <path id="Rectangle_8" data-name="Rectangle 8" d="M80,0A15,15,0,0,1,65,15H15A15,15,0,0,1,0,0" transform="translate(0 134)" fill="none" stroke="#1aa328" stroke-linecap="round" stroke-miterlimit="10" stroke-width="8"/>
      <path id="Rectangle_8-2" data-name="Rectangle 8" d="M80,0A15,15,0,0,1,65,15H15A15,15,0,0,1,0,0" transform="translate(370 134)" fill="none" stroke="#db0a06" stroke-linecap="round" stroke-miterlimit="10" stroke-width="8"/>
    </g>
    <g id="Your_screen_here" data-name="Your screen here" transform="translate(40 101)">
      <rect id="Rectangle_13-2" data-name="Rectangle 13" width="480" height="640" fill="#FFFFFF"/>
    </g>
  </g>
</svg>
